<svg xmlns="http://www.w3.org/2000/svg" width="25" height="25" viewBox="0 0 25 25" fill="none">
  <path d="M14.9706 20.9368C14.9706 20.564 14.6684 20.2618 14.2956 20.2618H5.32353C5.04739 20.2618 4.82353 20.038 4.82353 19.7618V5.46182C4.82353 5.18567 5.04739 4.96182 5.32353 4.96182H14.2956C14.6684 4.96182 14.9706 4.65961 14.9706 4.28682C14.9706 3.91402 14.6684 3.61182 14.2956 3.61182H5.5C4.39543 3.61182 3.5 4.50725 3.5 5.61182V19.6118C3.5 20.7164 4.39543 21.6118 5.5 21.6118H14.2956C14.6684 21.6118 14.9706 21.3096 14.9706 20.9368ZM13.3947 12.2518C13.0468 12.2518 12.7647 12.5339 12.7647 12.8818C12.7647 13.2298 13.0468 13.5118 13.3947 13.5118H18.9412L16.7698 15.7266C16.5056 15.9961 16.5056 16.4275 16.7698 16.697C17.0415 16.9742 17.4879 16.9742 17.7596 16.697L20.8137 13.5819C21.1949 13.193 21.1949 12.5706 20.8137 12.1817L17.7596 9.06662C17.4879 8.78945 17.0415 8.78945 16.7698 9.06662C16.5056 9.33613 16.5056 9.76751 16.7698 10.037L18.9412 12.2518H13.3947Z" fill="#97A1AF"/>
</svg>