<svg xmlns="http://www.w3.org/2000/svg" width="25" height="25" viewBox="0 0 25 25" fill="none">
  <path d="M11.9385 2.53062C12.1682 2.06727 12.8318 2.06727 13.0615 2.53062L15.6666 7.78633C15.7578 7.97033 15.9341 8.09786 16.138 8.12737L21.9632 8.97016C22.4768 9.04446 22.6819 9.67285 22.3102 10.0335L18.0951 14.1245C17.9475 14.2677 17.8802 14.4741 17.915 14.6763L18.9101 20.4529C18.9978 20.9622 18.4609 21.3506 18.0016 21.1101L12.7914 18.3828C12.609 18.2873 12.391 18.2873 12.2086 18.3828L6.99841 21.1101C6.53907 21.3506 6.00221 20.9622 6.08993 20.4529L7.085 14.6763C7.11983 14.4741 7.0525 14.2677 6.90493 14.1245L2.68977 10.0335C2.31815 9.67285 2.52321 9.04446 3.03678 8.97016L8.86198 8.12737C9.06592 8.09786 9.24221 7.97033 9.33342 7.78633L11.9385 2.53062Z" fill="#CED2DA"/>
</svg>