<svg xmlns="http://www.w3.org/2000/svg" width="103" height="40" viewBox="0 0 103 40" fill="none">
<g clip-path="url(#clip0_747_1211)">
<path d="M12.3481 8.19991V17.8623H1.63844V8.19991H3.66307V16.2426H6.03678V8.19991H7.94971V16.2426H10.3374V8.19991H12.3481ZM21.6765 17.8623H19.6519V13.9806C19.6519 12.6588 19.7496 11.4207 19.9451 10.2664L16.9012 17.8623H14.3879V8.19991H16.4125V12.1235C16.4125 12.9054 16.3846 13.557 16.3287 14.0783C16.2822 14.5903 16.2124 15.1581 16.1193 15.7818L19.219 8.19991H21.6765V17.8623ZM34.1311 12.9753C34.1311 14.3622 33.7308 15.4141 32.9303 16.1309C32.1297 16.8384 31.0173 17.2154 29.5931 17.2619V18.3929H27.5964V17.2479C26.1536 17.1828 25.0365 16.8011 24.2453 16.103C23.4541 15.3955 23.0584 14.3669 23.0584 13.0171C23.0584 11.6302 23.4587 10.5829 24.2593 9.87547C25.0598 9.1587 26.1722 8.77705 27.5964 8.73051V7.68328H29.5931V8.74447C31.036 8.80963 32.153 9.19594 32.9442 9.9034C33.7355 10.6015 34.1311 11.6255 34.1311 12.9753ZM29.5093 15.9494C30.3937 15.8935 31.036 15.6282 31.4362 15.1535C31.8365 14.6787 32.0366 13.9527 32.0366 12.9753C32.0366 12.0165 31.8318 11.2997 31.4223 10.825C31.0127 10.3502 30.375 10.0896 29.5093 10.043V15.9494ZM25.1529 13.0171C25.1529 13.9759 25.3577 14.6927 25.7673 15.1674C26.1768 15.6422 26.8145 15.9028 27.6802 15.9494V10.043C26.7959 10.0989 26.1536 10.3642 25.7533 10.8389C25.353 11.3137 25.1529 12.0397 25.1529 13.0171ZM41.4277 8.19991L41.2043 9.80566H38.7608V17.8623H36.7082V9.80566H34.1391V8.19991H41.4277Z" fill="#9534D2"/>
<path d="M5.45034 24.2973C6.0554 24.2973 6.58134 24.3857 7.02815 24.5626C7.47497 24.7302 7.91248 24.9908 8.34068 25.3445L7.32138 26.5314C6.76286 26.0753 6.17641 25.8472 5.56204 25.8472C4.8732 25.8472 4.32399 26.1311 3.91441 26.6989C3.51413 27.2575 3.314 28.1371 3.314 29.3379C3.314 30.5108 3.51413 31.3812 3.91441 31.949C4.32399 32.5075 4.87785 32.7868 5.576 32.7868C5.93904 32.7868 6.2695 32.7216 6.56738 32.5913C6.86525 32.4517 7.17709 32.2562 7.5029 32.0049L8.45238 33.1917C8.10796 33.5455 7.67976 33.8387 7.16778 34.0714C6.66512 34.2948 6.1066 34.4065 5.49223 34.4065C4.62652 34.4065 3.86786 34.211 3.21626 33.8201C2.56465 33.4291 2.05733 32.8566 1.69429 32.1026C1.33125 31.3393 1.14973 30.4178 1.14973 29.3379C1.14973 28.2861 1.33591 27.3831 1.70825 26.6291C2.0806 25.8658 2.59258 25.2887 3.24418 24.8977C3.89579 24.4974 4.63117 24.2973 5.45034 24.2973ZM11.6679 24.5207V34.1831H9.61534V24.5207H11.6679ZM21.0084 34.1831H18.3694L15.2975 26.5174C15.3813 27.1783 15.4465 27.802 15.493 28.3885C15.5489 28.9656 15.5768 29.6451 15.5768 30.4271V34.1831H13.7197V24.5207H16.3029L19.4306 32.2004C19.2444 30.953 19.1513 29.808 19.1513 28.7655V24.5207H21.0084V34.1831ZM28.8133 24.5207L28.5899 26.0148H25.0991V28.5281H28.143V30.0082H25.0991V32.6751H28.8412V34.1831H23.0465V24.5207H28.8133ZM39.7926 34.1831H37.782L37.5725 30.2595C37.5074 29.0866 37.4748 28.0906 37.4748 27.2714C37.4748 26.8339 37.4794 26.5174 37.4888 26.3219L35.8551 33.1498H33.9142L32.1689 26.308C32.2061 26.8758 32.2247 27.5134 32.2247 28.2209C32.2247 28.9749 32.2061 29.6684 32.1689 30.3014L31.9594 34.1831H29.9627L30.7167 24.5207H33.3278L34.9196 31.1811L36.4136 24.5207H39.0526L39.7926 34.1831ZM46.4834 34.1831L45.9389 32.0188H42.9089L42.3643 34.1831H40.228L43.2021 24.5207H45.7015L48.6617 34.1831H46.4834ZM43.2999 30.4969H45.5479L44.4169 26.0427L43.2999 30.4969Z" fill="#9534D2"/>
<path d="M63.8063 19.5388H60.7044C59.3831 19.5388 58.3108 20.6111 58.3108 21.9323C58.3108 23.2535 59.3831 24.3258 60.7044 24.3258H64.6791C65.3481 24.3258 65.9323 24.7662 66.1652 25.3934C66.9151 27.412 68.0091 29.2641 69.3752 30.8776C70.0757 31.7042 69.4981 32.9712 68.4146 32.9712H65.2057C64.0601 32.9712 63.0723 33.852 63.0181 34.9977C62.9606 36.22 63.9356 37.23 65.1451 37.23H80.888C81.7241 37.3465 82.5762 37.4071 83.4443 37.4071C93.7013 37.4071 102.004 29.0251 101.871 18.7346C101.742 8.78557 93.6199 0.67158 83.6709 0.550309C82.2762 0.532756 80.9167 0.67158 79.6083 0.949227C76.4808 1.61303 73.2878 1.9194 70.0917 1.9194H54.8339C53.5446 1.9194 52.434 2.91031 52.3734 4.19961C52.3079 5.57508 53.4042 6.7112 54.7653 6.7112H64.5707C66.5956 6.7112 67.9168 8.8478 67.0009 10.6525C66.9897 10.6733 66.9801 10.694 66.969 10.7147C66.5094 11.6322 65.568 12.2099 64.5404 12.2099H51.9936C50.7043 12.2099 49.5937 13.2008 49.5331 14.4901C49.4676 15.8656 50.5639 17.0017 51.925 17.0017H63.8047C64.5244 17.0017 65.0988 17.5985 65.0717 18.3181C65.0462 18.9995 64.4861 19.5372 63.8047 19.5372L63.8063 19.5388ZM78.2759 7.9287C78.4418 5.35169 80.5354 3.26136 83.1124 3.10019C86.2383 2.90552 88.8121 5.48093 88.6143 8.60686C88.4515 11.1855 86.3596 13.2774 83.7794 13.4401C80.6487 13.638 78.0716 11.0562 78.2743 7.9271L78.2759 7.9287ZM67.912 16.1815C67.7189 13.0556 70.2943 10.4834 73.4203 10.6812C76.0005 10.844 78.0924 12.9375 78.2536 15.5177C78.4498 18.6484 75.8664 21.2238 72.7373 21.0212C70.1603 20.8536 68.0716 18.7601 67.9104 16.1831L67.912 16.1815ZM81.9427 28.082C81.78 30.6606 79.6881 32.7526 77.1095 32.9153C73.9787 33.1132 71.3985 30.5314 71.6012 27.4023C71.7687 24.8237 73.8623 22.7349 76.4409 22.5738C79.5668 22.3791 82.139 24.9561 81.9427 28.082ZM83.7427 20.6749C82.5667 20.8712 81.5614 19.8707 81.7513 18.6947C81.8662 17.983 82.4374 17.407 83.1491 17.2873C84.3251 17.091 85.3335 18.0899 85.1437 19.2675C85.0288 19.9808 84.4559 20.5568 83.7427 20.6765V20.6749ZM95.2921 28.0788C95.131 30.6574 93.0406 32.751 90.462 32.9153C87.3313 33.1164 84.7511 30.5346 84.9522 27.4055C85.1165 24.8285 87.2069 22.7365 89.7839 22.5738C92.9082 22.3759 95.4868 24.9529 95.2921 28.0788ZM93.8098 21.0324C90.9471 21.0324 88.627 18.7122 88.627 15.8528C88.627 12.9934 91.1498 10.4738 94.18 10.6844C96.7362 10.8615 98.8058 12.9343 98.9797 15.4906C99.1856 18.5176 96.7905 21.0339 93.8114 21.0339L93.8098 21.0324Z" fill="#9534D2"/>
<rect x="54.5825" y="33.0503" width="6.42883" height="4.28589" rx="2.14294" fill="#9534D2"/>
<rect x="41.9033" y="1.97754" width="8.03604" height="4.64304" rx="2.27732" fill="#9534D2"/>
</g>
<defs>
<clipPath id="clip0_747_1211">
<rect width="102" height="39.142" fill="white" transform="translate(0.5 0.0410156)"/>
</clipPath>
</defs>
</svg>